<?xml version="1.0" encoding="utf-8"?>
<!-- Generator: Adobe Illustrator 15.0.0, SVG Export Plug-In . SVG Version: 6.00 Build 0)  -->
<!DOCTYPE svg PUBLIC "-//W3C//DTD SVG 1.1//EN" "http://www.w3.org/Graphics/SVG/1.1/DTD/svg11.dtd">
<svg version="1.1" xmlns="http://www.w3.org/2000/svg" xmlns:xlink="http://www.w3.org/1999/xlink" x="0px" y="0px"
	 width="1700.787px" height="1133.859px" viewBox="0 0 1700.787 1133.859" enable-background="new 0 0 1700.787 1133.859"
	 xml:space="preserve">
<g id="Cut">
	<path fill="none" stroke="#000000" stroke-miterlimit="10" d="M460.236,280.949c0,6.656-5.131,12.053-11.459,12.053H103.192
		c-6.329,0-11.459-5.396-11.459-12.053V49.936c0-6.656,5.131-12.053,11.459-12.053h345.585c6.329,0,11.459,5.396,11.459,12.053
		V280.949z"/>
	<path fill="none" stroke="#000000" stroke-miterlimit="10" d="M842.914,280.949c0,6.656-5.131,12.053-11.459,12.053H485.869
		c-6.329,0-11.459-5.396-11.459-12.053V49.936c0-6.656,5.131-12.053,11.459-12.053h345.585c6.329,0,11.459,5.396,11.459,12.053
		V280.949z"/>
	<path fill="none" stroke="#000000" stroke-miterlimit="10" d="M1225.591,280.949c0,6.656-5.131,12.053-11.459,12.053H868.546
		c-6.329,0-11.459-5.396-11.459-12.053V49.936c0-6.656,5.131-12.053,11.459-12.053h345.585c6.328,0,11.459,5.396,11.459,12.053
		V280.949z"/>
	<path fill="none" stroke="#000000" stroke-miterlimit="10" d="M1608.267,280.949c0,6.656-5.131,12.053-11.459,12.053h-345.584
		c-6.328,0-11.459-5.396-11.459-12.053V49.936c0-6.656,5.131-12.053,11.459-12.053h345.584c6.328,0,11.459,5.396,11.459,12.053
		V280.949z"/>
	<path fill="none" stroke="#000000" stroke-miterlimit="10" d="M460.236,550.24c0,6.656-5.131,12.053-11.459,12.053H103.192
		c-6.329,0-11.459-5.396-11.459-12.053V319.228c0-6.656,5.131-12.053,11.459-12.053h345.585c6.329,0,11.459,5.396,11.459,12.053
		V550.24z"/>
	<path fill="none" stroke="#000000" stroke-miterlimit="10" d="M842.914,550.24c0,6.656-5.131,12.053-11.459,12.053H485.869
		c-6.329,0-11.459-5.396-11.459-12.053V319.228c0-6.656,5.131-12.053,11.459-12.053h345.585c6.329,0,11.459,5.396,11.459,12.053
		V550.24z"/>
	<path fill="none" stroke="#000000" stroke-miterlimit="10" d="M1225.591,550.24c0,6.656-5.131,12.053-11.459,12.053H868.546
		c-6.329,0-11.459-5.396-11.459-12.053V319.228c0-6.656,5.131-12.053,11.459-12.053h345.585c6.328,0,11.459,5.396,11.459,12.053
		V550.24z"/>
	<path fill="none" stroke="#000000" stroke-miterlimit="10" d="M1608.267,550.24c0,6.656-5.131,12.053-11.459,12.053h-345.584
		c-6.328,0-11.459-5.396-11.459-12.053V319.228c0-6.656,5.131-12.053,11.459-12.053h345.584c6.328,0,11.459,5.396,11.459,12.053
		V550.24z"/>
	<path fill="none" stroke="#000000" stroke-miterlimit="10" d="M460.236,819.531c0,6.656-5.131,12.053-11.459,12.053H103.192
		c-6.329,0-11.459-5.396-11.459-12.053V588.518c0-6.656,5.131-12.053,11.459-12.053h345.585c6.329,0,11.459,5.396,11.459,12.053
		V819.531z"/>
	<path fill="none" stroke="#000000" stroke-miterlimit="10" d="M842.914,819.533c0,6.656-5.131,12.053-11.459,12.053H485.869
		c-6.329,0-11.459-5.396-11.459-12.053V588.519c0-6.656,5.131-12.053,11.459-12.053h345.585c6.329,0,11.459,5.396,11.459,12.053
		V819.533z"/>
	<path fill="none" stroke="#000000" stroke-miterlimit="10" d="M1225.591,819.533c0,6.656-5.131,12.053-11.459,12.053H868.546
		c-6.329,0-11.459-5.396-11.459-12.053V588.519c0-6.656,5.131-12.053,11.459-12.053h345.585c6.328,0,11.459,5.396,11.459,12.053
		V819.533z"/>
	<path fill="none" stroke="#000000" stroke-miterlimit="10" d="M1608.267,819.533c0,6.656-5.131,12.053-11.459,12.053h-345.584
		c-6.328,0-11.459-5.396-11.459-12.053V588.519c0-6.656,5.131-12.053,11.459-12.053h345.584c6.328,0,11.459,5.396,11.459,12.053
		V819.533z"/>
	<path fill="none" stroke="#000000" stroke-miterlimit="10" d="M460.236,1088.824c0,6.656-5.131,12.053-11.459,12.053H103.192
		c-6.329,0-11.459-5.396-11.459-12.053V857.81c0-6.656,5.131-12.053,11.459-12.053h345.585c6.329,0,11.459,5.396,11.459,12.053
		V1088.824z"/>
	<path fill="none" stroke="#000000" stroke-miterlimit="10" d="M842.914,1088.824c0,6.656-5.131,12.053-11.459,12.053H485.869
		c-6.329,0-11.459-5.396-11.459-12.053V857.81c0-6.656,5.131-12.053,11.459-12.053h345.585c6.329,0,11.459,5.396,11.459,12.053
		V1088.824z"/>
	<path fill="none" stroke="#000000" stroke-miterlimit="10" d="M1225.591,1088.824c0,6.656-5.131,12.053-11.459,12.053H868.546
		c-6.329,0-11.459-5.396-11.459-12.053V857.81c0-6.656,5.131-12.053,11.459-12.053h345.585c6.328,0,11.459,5.396,11.459,12.053
		V1088.824z"/>
	<path fill="none" stroke="#000000" stroke-miterlimit="10" d="M1608.267,1088.824c0,6.656-5.131,12.053-11.459,12.053h-345.584
		c-6.328,0-11.459-5.396-11.459-12.053V857.81c0-6.656,5.131-12.053,11.459-12.053h345.584c6.328,0,11.459,5.396,11.459,12.053
		V1088.824z"/>
	<circle fill="#FFFFFF" stroke="#000000" stroke-miterlimit="10" cx="120.079" cy="165.442" r="4.252"/>
	<circle fill="#FFFFFF" stroke="#000000" stroke-miterlimit="10" cx="502.756" cy="165.442" r="4.252"/>
	<circle fill="#FFFFFF" stroke="#000000" stroke-miterlimit="10" cx="885.433" cy="165.442" r="4.252"/>
	<circle fill="#FFFFFF" stroke="#000000" stroke-miterlimit="10" cx="1268.11" cy="165.442" r="4.252"/>
	<circle fill="#FFFFFF" stroke="#000000" stroke-miterlimit="10" cx="120.079" cy="434.734" r="4.252"/>
	<circle fill="#FFFFFF" stroke="#000000" stroke-miterlimit="10" cx="502.756" cy="434.734" r="4.252"/>
	<circle fill="#FFFFFF" stroke="#000000" stroke-miterlimit="10" cx="885.433" cy="434.734" r="4.252"/>
	<circle fill="#FFFFFF" stroke="#000000" stroke-miterlimit="10" cx="1268.11" cy="434.734" r="4.252"/>
	<circle fill="#FFFFFF" stroke="#000000" stroke-miterlimit="10" cx="120.079" cy="704.025" r="4.252"/>
	<circle fill="#FFFFFF" stroke="#000000" stroke-miterlimit="10" cx="502.756" cy="704.025" r="4.252"/>
	<circle fill="#FFFFFF" stroke="#000000" stroke-miterlimit="10" cx="885.433" cy="704.025" r="4.252"/>
	<circle fill="#FFFFFF" stroke="#000000" stroke-miterlimit="10" cx="1268.11" cy="704.025" r="4.252"/>
	<circle fill="#FFFFFF" stroke="#000000" stroke-miterlimit="10" cx="120.079" cy="973.316" r="4.252"/>
	<circle fill="#FFFFFF" stroke="#000000" stroke-miterlimit="10" cx="502.756" cy="973.316" r="4.252"/>
	<circle fill="#FFFFFF" stroke="#000000" stroke-miterlimit="10" cx="885.433" cy="973.316" r="4.252"/>
	<circle fill="#FFFFFF" stroke="#000000" stroke-miterlimit="10" cx="1268.11" cy="973.316" r="4.252"/>
</g>
<g id="gravure">
	<g>
		<path fill="none" stroke="#433F92" stroke-miterlimit="10" d="M269.252,1004.468l25.781,10.156v36.621l-140.039-60.352v-36.621
			l140.039-58.984v37.988l-25.781,9.961V1004.468z M190.444,973.707l51.758,20.41v-40.43L190.444,973.707z"/>
	</g>
	<g>
		<path fill="none" stroke="#433F92" stroke-miterlimit="10" d="M159.292,668.087c2.866-7.747,6.934-13.721,12.207-17.92
			s11.459-6.299,18.555-6.299c7.358,0,13.786,2.133,19.287,6.396c5.502,4.265,9.326,10.141,11.475,17.627
			c1.758-8.789,5.827-15.787,12.207-20.996c6.381-5.208,14.128-7.813,23.242-7.813c7.878,0,14.746,2.197,20.605,6.592
			s10.352,10.629,13.477,18.701c3.125,8.073,4.688,17.578,4.688,28.516v68.652H154.995v-66.211
			C154.995,684.917,156.427,675.836,159.292,668.087z M211.049,726.095v-28.809c0-5.208-1.302-9.342-3.906-12.402
			c-2.603-3.06-6.185-4.59-10.742-4.59c-4.427,0-7.894,1.53-10.4,4.59c-2.505,3.061-3.76,7.194-3.76,12.402v28.809H211.049z
			 M267.592,726.095v-28.809c0-6.641-1.399-11.865-4.199-15.674c-2.798-3.809-6.641-5.713-11.523-5.713
			c-4.688,0-8.398,1.904-11.133,5.713s-4.102,9.033-4.102,15.674v28.809H267.592z"/>
	</g>
	<g>
		<path fill="none" stroke="#433F92" stroke-miterlimit="10" d="M160.219,393.621c4.265-10.059,10.01-18.636,17.236-25.732
			l24.414,20.605c-5.599,4.558-10.042,9.995-13.33,16.309c-3.287,6.315-4.932,12.631-4.932,18.945
			c0,7.358,1.774,13.999,5.322,19.922c3.549,5.925,8.415,10.581,14.6,13.965c6.186,3.386,13.086,5.078,20.703,5.078
			c7.749,0,14.746-1.692,20.996-5.078c6.25-3.384,11.182-8.057,14.795-14.014s5.42-12.581,5.42-19.873
			c0-5.859-1.465-11.963-4.395-18.311s-6.934-11.995-12.012-16.943l21.973-20.801c7.749,7.617,13.95,16.586,18.604,26.904
			c4.655,10.319,6.982,20.622,6.982,30.908c0,13.867-3.125,26.401-9.375,37.598c-6.25,11.198-14.876,20.004-25.879,26.416
			c-11.001,6.413-23.242,9.619-36.719,9.619c-13.345,0-25.374-3.271-36.084-9.814c-10.708-6.543-19.173-15.511-25.391-26.904
			c-6.216-11.392-9.326-24.087-9.326-38.086C153.823,413.918,155.956,403.679,160.219,393.621z"/>
	</g>
	<g>
		<path fill="none" stroke="#433F92" stroke-miterlimit="10" d="M163.833,129.212c5.893-11.263,14.128-20.035,24.707-26.318
			c10.581-6.282,22.739-9.424,36.475-9.424c13.608,0,25.717,3.208,36.328,9.619c10.612,6.413,18.881,15.349,24.805,26.807
			c5.925,11.459,8.887,24.609,8.887,39.453v58.789H154.995v-60.254C154.995,153.367,157.941,140.477,163.833,129.212z
			 M266.616,192.494v-25.391c0-7.227-1.724-13.672-5.176-19.336c-3.45-5.664-8.316-10.091-14.6-13.281
			c-6.282-3.189-13.492-4.785-21.631-4.785c-8.138,0-15.364,1.66-21.68,4.98c-6.314,3.32-11.246,7.959-14.795,13.916
			c-3.548,5.957-5.322,12.646-5.322,20.068v23.828H266.616z"/>
	</g>
	<g>
		<path fill="none" stroke="#433F92" stroke-miterlimit="10" d="M565.699,991.089h27.832v-66.797h28.027v66.797h28.125v-76.172
			h28.027v111.816H537.672V917.066h28.027V991.089z"/>
	</g>
	<g>
		<path fill="none" stroke="#433F92" stroke-miterlimit="10" d="M565.699,714.767h32.422v-62.793h28.027v62.793h51.563v35.645
			H537.672V646.603h28.027V714.767z"/>
	</g>
	<g>
		<path fill="none" stroke="#433F92" stroke-miterlimit="10" d="M606.52,371.208h54.59c5.339,7.617,9.702,16.782,13.086,27.49
			c3.386,10.71,5.078,20.947,5.078,30.713c0,13.999-3.125,26.694-9.375,38.086c-6.25,11.394-14.81,20.361-25.684,26.904
			c-10.872,6.543-23.047,9.814-36.523,9.814c-13.345,0-25.439-3.369-36.279-10.107s-19.368-15.967-25.586-27.686
			c-6.216-11.719-9.326-24.869-9.326-39.453c0-10.416,1.872-20.752,5.615-31.006c3.745-10.254,8.806-18.96,15.186-26.123
			l24.219,19.922c-4.688,5.078-8.398,10.954-11.133,17.627c-2.734,6.674-4.102,13.266-4.102,19.775
			c0,7.617,1.84,14.536,5.518,20.752c3.679,6.218,8.643,11.084,14.893,14.6s13.249,5.273,20.996,5.273
			c7.878,0,14.99-1.79,21.338-5.371c6.348-3.58,11.345-8.511,14.99-14.795c3.647-6.282,5.469-13.232,5.469-20.85
			c0-3.58-0.601-7.535-1.807-11.865c-1.204-4.329-2.847-8.643-4.932-12.939h-36.23V371.208z"/>
	</g>
	<g>
		<path fill="none" stroke="#433F92" stroke-miterlimit="10" d="M677.711,136.39h-54.395v58.008h54.395v35.645H537.672v-35.645
			h57.617V136.39h-57.617v-35.547h140.039V136.39z"/>
	</g>
	<g>
		<path fill="none" stroke="#433F92" stroke-miterlimit="10" d="M1060.388,991.138H920.349v-35.645h140.039V991.138z"/>
	</g>
	<g>
		<path fill="none" stroke="#433F92" stroke-miterlimit="10" d="M1049.548,674.875c8.269,8.594,12.402,20.443,12.402,35.547
			c0,19.076-7.454,35.124-22.363,48.145l-23.828-16.406c5.078-4.817,8.952-9.847,11.621-15.088c2.671-5.24,4.004-10.01,4.004-14.307
			c0-4.817-1.465-8.512-4.395-11.084c-2.93-2.571-7.192-3.857-12.793-3.857h-65.234v47.949h-28.809v-83.789h94.824
			C1029.758,661.984,1041.281,666.281,1049.548,674.875z"/>
	</g>
	<g>
		<path fill="none" stroke="#433F92" stroke-miterlimit="10" d="M1005.407,441.228l20.605,18.555h34.375v35.645H920.349v-35.645
			h60.644l-60.644-53.613v-41.211l58.007,52.051l82.031-55.371v42.578L1005.407,441.228z"/>
	</g>
	<g>
		<path fill="none" stroke="#433F92" stroke-miterlimit="10" d="M1030.603,112.416h29.785v95.02H920.349v-35.645h110.253V112.416z"
			/>
	</g>
	<g>
		<path fill="none" stroke="#433F92" stroke-miterlimit="10" d="M1443.065,927.857l-91.016,0.195l77.051,33.594v23.242
			l-77.051,33.594h91.016v31.836h-140.234v-39.063l83.398-37.988l-83.398-37.988v-38.77h140.234V927.857z"/>
	</g>
	<g>
		<path fill="none" stroke="#433F92" stroke-miterlimit="10" d="M1443.065,670.773l-86.23,64.453h86.23v33.398h-140.039v-31.445
			l86.426-64.551h-86.426v-33.203h140.039V670.773z"/>
	</g>
	<g>
		<path fill="none" stroke="#433F92" stroke-miterlimit="10" d="M1311.181,396.111c6.218-11.556,14.714-20.621,25.488-27.197
			c10.775-6.575,22.836-9.863,36.182-9.863c13.477,0,25.684,3.288,36.621,9.863c10.938,6.577,19.531,15.642,25.781,27.197
			c6.25,11.557,9.375,24.463,9.375,38.721c0,14.128-3.125,26.953-9.375,38.477s-14.844,20.59-25.781,27.197
			c-10.938,6.608-23.145,9.912-36.621,9.912s-25.602-3.304-36.377-9.912c-10.774-6.607-19.238-15.64-25.391-27.1
			c-6.152-11.458-9.229-24.316-9.229-38.574S1304.964,407.668,1311.181,396.111z M1337.06,454.119
			c3.613,6.088,8.578,10.922,14.893,14.502c6.315,3.581,13.347,5.371,21.094,5.371c7.748,0,14.828-1.79,21.24-5.371
			c6.413-3.58,11.442-8.414,15.088-14.502c3.646-6.087,5.469-12.646,5.469-19.678c0-7.095-1.822-13.606-5.469-19.531
			c-3.646-5.923-8.675-10.628-15.088-14.111c-6.412-3.482-13.492-5.225-21.24-5.225c-7.747,0-14.778,1.743-21.094,5.225
			c-6.314,3.483-11.279,8.188-14.893,14.111c-3.613,5.925-5.42,12.436-5.42,19.531
			C1331.64,441.472,1333.446,448.032,1337.06,454.119z"/>
	</g>
	<g>
		<path fill="none" stroke="#433F92" stroke-miterlimit="10" d="M1315.722,116.81c8.464-9.896,20.508-14.844,36.133-14.844
			c16.406,0,29.15,4.948,38.232,14.844c9.082,9.897,13.623,23.764,13.623,41.602v25.391h39.355v35.645h-140.039v-61.035
			C1303.026,140.574,1307.259,126.707,1315.722,116.81z M1375.683,183.802v-23.633c0-7.876-1.937-13.931-5.811-18.164
			c-3.873-4.231-9.488-6.348-16.846-6.348c-7.227,0-12.695,2.133-16.406,6.396c-3.711,4.265-5.566,10.303-5.566,18.115v23.633
			H1375.683z"/>
	</g>
	<line fill="none" stroke="#433F92" stroke-miterlimit="10" x1="347.186" y1="37.883" x2="347.186" y2="293.001"/>
	<line fill="none" stroke="#433F92" stroke-miterlimit="10" x1="347.186" y1="307.175" x2="347.186" y2="562.293"/>
	<line fill="none" stroke="#433F92" stroke-miterlimit="10" x1="347.186" y1="576.466" x2="347.186" y2="831.583"/>
	<line fill="none" stroke="#433F92" stroke-miterlimit="10" x1="347.186" y1="845.757" x2="347.186" y2="1100.875"/>
	<line fill="none" stroke="#433F92" stroke-miterlimit="10" x1="729.863" y1="37.883" x2="729.863" y2="293.001"/>
	<line fill="none" stroke="#433F92" stroke-miterlimit="10" x1="729.863" y1="307.175" x2="729.863" y2="562.293"/>
	<line fill="none" stroke="#433F92" stroke-miterlimit="10" x1="729.863" y1="576.466" x2="729.863" y2="831.583"/>
	<line fill="none" stroke="#433F92" stroke-miterlimit="10" x1="729.863" y1="845.757" x2="729.863" y2="1100.875"/>
	<line fill="none" stroke="#433F92" stroke-miterlimit="10" x1="1112.54" y1="37.883" x2="1112.54" y2="293.001"/>
	<line fill="none" stroke="#433F92" stroke-miterlimit="10" x1="1112.54" y1="307.175" x2="1112.54" y2="562.293"/>
	<line fill="none" stroke="#433F92" stroke-miterlimit="10" x1="1112.54" y1="576.466" x2="1112.54" y2="831.583"/>
	<line fill="none" stroke="#433F92" stroke-miterlimit="10" x1="1112.54" y1="845.757" x2="1112.54" y2="1100.875"/>
	<line fill="none" stroke="#433F92" stroke-miterlimit="10" x1="1495.218" y1="37.883" x2="1495.218" y2="293.001"/>
	<line fill="none" stroke="#433F92" stroke-miterlimit="10" x1="1495.218" y1="307.175" x2="1495.218" y2="562.293"/>
	<line fill="none" stroke="#433F92" stroke-miterlimit="10" x1="1495.218" y1="576.466" x2="1495.218" y2="831.583"/>
	<line fill="none" stroke="#433F92" stroke-miterlimit="10" x1="1495.218" y1="845.757" x2="1495.218" y2="1100.875"/>
</g>
</svg>
