<?xml version="1.0" encoding="utf-8"?>
<!-- Generator: Adobe Illustrator 15.0.0, SVG Export Plug-In . SVG Version: 6.00 Build 0)  -->
<!DOCTYPE svg PUBLIC "-//W3C//DTD SVG 1.1//EN" "http://www.w3.org/Graphics/SVG/1.1/DTD/svg11.dtd">
<svg version="1.1" xmlns="http://www.w3.org/2000/svg" xmlns:xlink="http://www.w3.org/1999/xlink" x="0px" y="0px"
	 width="1700.787px" height="1133.859px" viewBox="0 0 1700.787 1133.859" enable-background="new 0 0 1700.787 1133.859"
	 xml:space="preserve">
<g id="Cut">
	<path fill="none" stroke="#000000" stroke-miterlimit="10" d="M459.612,280.829c0,6.656-5.131,12.053-11.46,12.053H102.568
		c-6.329,0-11.46-5.396-11.46-12.053V49.816c0-6.656,5.131-12.053,11.46-12.053h345.584c6.329,0,11.46,5.396,11.46,12.053V280.829z"
		/>
	<path fill="none" stroke="#000000" stroke-miterlimit="10" d="M842.289,280.829c0,6.656-5.131,12.053-11.459,12.053H485.245
		c-6.329,0-11.46-5.396-11.46-12.053V49.816c0-6.656,5.131-12.053,11.46-12.053H830.83c6.328,0,11.459,5.396,11.459,12.053V280.829z
		"/>
	<path fill="none" stroke="#000000" stroke-miterlimit="10" d="M1224.967,280.829c0,6.656-5.131,12.053-11.459,12.053H867.922
		c-6.328,0-11.459-5.396-11.459-12.053V49.816c0-6.656,5.131-12.053,11.459-12.053h345.586c6.328,0,11.459,5.396,11.459,12.053
		V280.829z"/>
	<path fill="none" stroke="#000000" stroke-miterlimit="10" d="M1607.643,280.829c0,6.656-5.131,12.053-11.459,12.053H1250.6
		c-6.328,0-11.459-5.396-11.459-12.053V49.816c0-6.656,5.131-12.053,11.459-12.053h345.584c6.328,0,11.459,5.396,11.459,12.053
		V280.829z"/>
	<path fill="none" stroke="#000000" stroke-miterlimit="10" d="M459.612,550.121c0,6.656-5.131,12.053-11.46,12.053H102.568
		c-6.329,0-11.46-5.396-11.46-12.053V319.108c0-6.656,5.131-12.053,11.46-12.053h345.584c6.329,0,11.46,5.396,11.46,12.053V550.121z
		"/>
	<path fill="none" stroke="#000000" stroke-miterlimit="10" d="M842.289,550.121c0,6.656-5.131,12.053-11.459,12.053H485.245
		c-6.329,0-11.46-5.396-11.46-12.053V319.108c0-6.656,5.131-12.053,11.46-12.053H830.83c6.328,0,11.459,5.396,11.459,12.053V550.121
		z"/>
	<path fill="none" stroke="#000000" stroke-miterlimit="10" d="M1224.967,550.121c0,6.656-5.131,12.053-11.459,12.053H867.922
		c-6.328,0-11.459-5.396-11.459-12.053V319.108c0-6.656,5.131-12.053,11.459-12.053h345.586c6.328,0,11.459,5.396,11.459,12.053
		V550.121z"/>
	<path fill="none" stroke="#000000" stroke-miterlimit="10" d="M1607.643,550.121c0,6.656-5.131,12.053-11.459,12.053H1250.6
		c-6.328,0-11.459-5.396-11.459-12.053V319.108c0-6.656,5.131-12.053,11.459-12.053h345.584c6.328,0,11.459,5.396,11.459,12.053
		V550.121z"/>
	<path fill="none" stroke="#000000" stroke-miterlimit="10" d="M459.612,819.412c0,6.656-5.131,12.053-11.46,12.053H102.568
		c-6.329,0-11.46-5.396-11.46-12.053V588.398c0-6.656,5.131-12.053,11.46-12.053h345.584c6.329,0,11.46,5.396,11.46,12.053V819.412z
		"/>
	<path fill="none" stroke="#000000" stroke-miterlimit="10" d="M842.289,819.414c0,6.656-5.131,12.053-11.459,12.053H485.245
		c-6.329,0-11.46-5.396-11.46-12.053V588.399c0-6.656,5.131-12.053,11.46-12.053H830.83c6.328,0,11.459,5.396,11.459,12.053V819.414
		z"/>
	<path fill="none" stroke="#000000" stroke-miterlimit="10" d="M1224.967,819.414c0,6.656-5.131,12.053-11.459,12.053H867.922
		c-6.328,0-11.459-5.396-11.459-12.053V588.399c0-6.656,5.131-12.053,11.459-12.053h345.586c6.328,0,11.459,5.396,11.459,12.053
		V819.414z"/>
	<path fill="none" stroke="#000000" stroke-miterlimit="10" d="M1607.643,819.414c0,6.656-5.131,12.053-11.459,12.053H1250.6
		c-6.328,0-11.459-5.396-11.459-12.053V588.399c0-6.656,5.131-12.053,11.459-12.053h345.584c6.328,0,11.459,5.396,11.459,12.053
		V819.414z"/>
	<path fill="none" stroke="#000000" stroke-miterlimit="10" d="M459.612,1088.705c0,6.656-5.131,12.053-11.46,12.053H102.568
		c-6.329,0-11.46-5.396-11.46-12.053V857.691c0-6.656,5.131-12.053,11.46-12.053h345.584c6.329,0,11.46,5.396,11.46,12.053V1088.705
		z"/>
	<path fill="none" stroke="#000000" stroke-miterlimit="10" d="M842.289,1088.705c0,6.656-5.131,12.053-11.459,12.053H485.245
		c-6.329,0-11.46-5.396-11.46-12.053V857.691c0-6.656,5.131-12.053,11.46-12.053H830.83c6.328,0,11.459,5.396,11.459,12.053
		V1088.705z"/>
	<path fill="none" stroke="#000000" stroke-miterlimit="10" d="M1224.967,1088.705c0,6.656-5.131,12.053-11.459,12.053H867.922
		c-6.328,0-11.459-5.396-11.459-12.053V857.691c0-6.656,5.131-12.053,11.459-12.053h345.586c6.328,0,11.459,5.396,11.459,12.053
		V1088.705z"/>
	<path fill="none" stroke="#000000" stroke-miterlimit="10" d="M1607.643,1088.705c0,6.656-5.131,12.053-11.459,12.053H1250.6
		c-6.328,0-11.459-5.396-11.459-12.053V857.691c0-6.656,5.131-12.053,11.459-12.053h345.584c6.328,0,11.459,5.396,11.459,12.053
		V1088.705z"/>
	<circle fill="#FFFFFF" stroke="#000000" stroke-miterlimit="10" cx="119.455" cy="165.323" r="4.252"/>
	<circle fill="#FFFFFF" stroke="#000000" stroke-miterlimit="10" cx="502.132" cy="165.323" r="4.252"/>
	<circle fill="#FFFFFF" stroke="#000000" stroke-miterlimit="10" cx="884.809" cy="165.323" r="4.252"/>
	<circle fill="#FFFFFF" stroke="#000000" stroke-miterlimit="10" cx="1267.486" cy="165.323" r="4.252"/>
	<circle fill="#FFFFFF" stroke="#000000" stroke-miterlimit="10" cx="119.455" cy="434.614" r="4.252"/>
	<circle fill="#FFFFFF" stroke="#000000" stroke-miterlimit="10" cx="502.132" cy="434.614" r="4.252"/>
	<circle fill="#FFFFFF" stroke="#000000" stroke-miterlimit="10" cx="884.809" cy="434.614" r="4.252"/>
	<circle fill="#FFFFFF" stroke="#000000" stroke-miterlimit="10" cx="1267.486" cy="434.614" r="4.252"/>
	<circle fill="#FFFFFF" stroke="#000000" stroke-miterlimit="10" cx="119.455" cy="703.906" r="4.252"/>
	<circle fill="#FFFFFF" stroke="#000000" stroke-miterlimit="10" cx="502.132" cy="703.906" r="4.252"/>
	<circle fill="#FFFFFF" stroke="#000000" stroke-miterlimit="10" cx="884.809" cy="703.906" r="4.252"/>
	<circle fill="#FFFFFF" stroke="#000000" stroke-miterlimit="10" cx="1267.486" cy="703.906" r="4.252"/>
	<circle fill="#FFFFFF" stroke="#000000" stroke-miterlimit="10" cx="119.455" cy="973.197" r="4.252"/>
	<circle fill="#FFFFFF" stroke="#000000" stroke-miterlimit="10" cx="502.132" cy="973.197" r="4.252"/>
	<circle fill="#FFFFFF" stroke="#000000" stroke-miterlimit="10" cx="884.809" cy="973.197" r="4.252"/>
	<circle fill="#FFFFFF" stroke="#000000" stroke-miterlimit="10" cx="1267.486" cy="973.197" r="4.252"/>
</g>
<g id="gravure">
	<g>
		<path fill="none" stroke="#433F92" stroke-miterlimit="10" d="M323.315,909.964c2.734,7.324,4.102,14.535,4.102,21.631
			c0,9.57-2.768,18.295-8.301,26.172c-5.533,7.878-13.248,14.128-23.145,18.75c-0.391,13.737-3.774,26.14-10.156,37.207
			c-6.379,11.068-14.941,19.775-25.684,26.123s-22.72,9.521-35.938,9.521c-13.477,0-25.601-3.304-36.377-9.912
			c-10.773-6.607-19.238-15.641-25.391-27.1c-6.152-11.458-9.229-24.316-9.229-38.574s3.11-27.164,9.326-38.721
			c6.219-11.556,14.715-20.621,25.488-27.197c10.776-6.575,22.837-9.863,36.182-9.863c15.366,0,29.038,4.232,41.016,12.695
			c11.98,8.464,20.574,19.76,25.781,33.887c6.381-5.078,9.57-10.742,9.57-16.992c0-3.189-0.928-6.934-2.783-11.23
			s-4.443-8.561-7.764-12.793l21.973-12.598C316.806,896.309,320.581,902.64,323.315,909.964z M245.63,1007.572
			c6.414-3.58,11.443-8.414,15.088-14.502c3.647-6.087,5.469-12.646,5.469-19.678c0-7.096-1.821-13.606-5.469-19.531
			c-3.645-5.924-8.674-10.628-15.088-14.111c-6.411-3.482-13.491-5.225-21.24-5.225c-7.746,0-14.777,1.742-21.094,5.225
			c-6.313,3.483-11.279,8.188-14.893,14.111c-3.613,5.925-5.42,12.436-5.42,19.531c0,7.097,1.807,13.672,5.42,19.727
			s8.579,10.873,14.893,14.453c6.316,3.581,13.348,5.371,21.094,5.371C232.139,1012.943,239.219,1011.153,245.63,1007.572z"/>
	</g>
	<g>
		<path fill="none" stroke="#433F92" stroke-miterlimit="10" d="M255.054,698.632v1.074v26.953h39.355v35.645H154.37v-62.598
			c0-18.555,4.233-32.894,12.695-43.018c8.465-10.123,20.508-15.186,36.133-15.186c10.679,0,19.81,2.165,27.393,6.494
			c7.586,4.331,13.462,10.629,17.627,18.896l46.191-29.395v40.332L255.054,698.632z M227.026,699.707
			c0-7.747-1.936-13.753-5.811-18.018c-3.872-4.263-9.487-6.396-16.846-6.396c-7.227,0-12.695,2.133-16.406,6.396
			c-3.711,4.265-5.566,10.271-5.566,18.018v26.953h44.629V699.707z"/>
	</g>
	<g>
		<path fill="none" stroke="#433F92" stroke-miterlimit="10" d="M157.007,401.558c2.801-9.732,6.609-18.277,11.426-25.635
			l27.734,13.477c-4.297,7.358-7.795,15.219-10.498,23.584c-2.7,8.366-4.053,15.415-4.053,21.143c0,4.688,0.864,8.432,2.588,11.23
			c1.727,2.8,4.248,4.199,7.568,4.199c4.429,0,7.813-2.164,10.156-6.494c2.344-4.329,4.852-11.148,7.52-20.459
			c2.801-9.766,5.601-17.773,8.398-24.023c2.801-6.25,7-11.653,12.598-16.211c5.601-4.556,13.055-6.836,22.363-6.836
			c9.051,0,16.814,2.475,23.291,7.422c6.479,4.948,11.346,11.655,14.6,20.117c3.257,8.464,4.883,17.969,4.883,28.516
			c0,11.589-2.002,23.047-6.006,34.375s-9.455,21.191-16.357,29.59l-27.441-13.77c6.121-7.095,11.15-15.445,15.088-25.049
			c3.94-9.603,5.908-18.115,5.908-25.537c0-5.728-1.025-10.205-3.076-13.428s-5.093-4.834-9.131-4.834
			c-4.556,0-8.022,2.246-10.4,6.738c-2.375,4.492-4.834,11.459-7.373,20.898c-2.668,9.57-5.337,17.465-8.008,23.682
			c-2.668,6.218-6.738,11.557-12.207,16.016c-5.469,4.46-12.661,6.689-21.582,6.689c-8.527,0-15.949-2.295-22.266-6.885
			c-6.313-4.59-11.213-11.116-14.697-19.58c-3.481-8.462-5.225-18.228-5.225-29.297
			C152.808,421.172,154.209,411.292,157.007,401.558z"/>
	</g>
	<g>
		<path fill="none" stroke="#433F92" stroke-miterlimit="10" d="M182.983,147.599h111.426v35.645H182.983v41.797h-28.809V105.412
			h28.809V147.599z"/>
	</g>
	<g>
		<path fill="none" stroke="#433F92" stroke-miterlimit="10" d="M650.28,916.751c9.082,5.209,16.081,12.614,20.996,22.217
			c4.916,9.604,7.373,20.883,7.373,33.838c0,13.086-2.457,24.479-7.373,34.18c-4.915,9.701-11.914,17.188-20.996,22.461
			s-19.742,7.91-31.982,7.91h-81.25v-35.547h81.25c9.311,0,16.732-2.701,22.266-8.105c5.534-5.403,8.301-12.435,8.301-21.094
			c0-8.528-2.734-15.364-8.203-20.508c-5.469-5.143-12.923-7.715-22.363-7.715h-81.25v-35.449h81.25
			C630.538,908.939,641.198,911.543,650.28,916.751z"/>
	</g>
	<g>
		<path fill="none" stroke="#433F92" stroke-miterlimit="10" d="M677.087,722.558l-140.039,54.395v-37.988l103.027-35.84
			l-103.027-35.742v-36.621l140.039,54.98V722.558z"/>
	</g>
	<g>
		<path fill="none" stroke="#433F92" stroke-miterlimit="10" d="M677.087,407.906l-96.777,25.977l96.777,26.367v36.816
			l-140.039,45.801v-37.988l103.027-27.441l-103.027-26.758v-34.766l103.027-27.441l-103.027-26.953v-36.426l140.039,46.191V407.906
			z"/>
	</g>
	<g>
		<path fill="none" stroke="#433F92" stroke-miterlimit="10" d="M677.087,93.302v42.578l-44.629,30.273l44.629,30.176v41.406
			l-71.582-50l-68.457,46.777v-41.406l40.82-26.953l-40.82-27.051V97.306l66.797,46.191L677.087,93.302z"/>
	</g>
	<g>
		<path fill="none" stroke="#433F92" stroke-miterlimit="10" d="M1059.765,954.935v35.449h-44.238l-95.801,51.758v-35.547
			l61.035-33.789l-61.035-33.008v-35.645l94.824,50.781H1059.765z"/>
	</g>
	<g>
		<path fill="none" stroke="#433F92" stroke-miterlimit="10" d="M1031.542,718.164v-75.977h28.223V765.82h-22.754l-89.063-75v72.363
			h-28.223V643.359h22.852L1031.542,718.164z"/>
	</g>
	<g id="Group_4_">
		<g id="Group">
			<g id="Vector_9_">
				<g transform="translate(-13.66 -586.261)">
					<path id="path17_fill" fill="none" stroke="#433F92" stroke-miterlimit="10" d="M1477.193,165.962
						c0-61.317-49.708-111.025-111.024-111.025c-61.317,0-111.025,49.708-111.025,111.025c0,61.318,49.708,111.025,111.025,111.025
						C1427.485,276.987,1477.193,227.28,1477.193,165.962z"/>
				</g>
			</g>
		</g>
		<g id="Group_1_">
			<g id="Vector_10_">
				<g transform="translate(20.154 -488.309)">
					<path id="path18_fill" fill="none" stroke="#433F92" stroke-miterlimit="10" d="M1369.5,228.762h-0.003l-0.277,0.016
						c-0.333,0.041-0.488,0.16-0.662,0.336l-4.145,4.144c-0.35,0.37-0.52,0.567-0.52,0.846c0,0.276,0.17,0.473,0.52,0.846
						l4.145,4.143c0.174,0.175,0.328,0.294,0.662,0.337l0.277,0.015h53.646c0.541,0,0.721-0.132,0.941-0.352l4.146-4.143
						c0.348-0.372,0.52-0.57,0.52-0.846c0-0.279-0.172-0.476-0.52-0.846l-4.146-4.144c-0.221-0.219-0.4-0.352-0.941-0.352h-39.116
						H1369.5z"/>
				</g>
			</g>
			<g id="Vector_11_">
				<g transform="translate(34.4652 -488.309)">
					<path id="path19_fill" fill="none" stroke="#433F92" stroke-miterlimit="10" d="M1403.528,222.929l4.145-4.145
						c0.371-0.347,0.566-0.519,0.845-0.519c0.277,0,0.474,0.172,0.846,0.519l4.146,4.145l0.349,0.352
						c0-13.994-11.38-25.376-25.373-25.376c-4.549,0-8.821,1.203-12.518,3.306l-0.003,0.005
						c-5.835,3.323-10.231,8.893-12.001,15.525h0.002c-0.14,0.524-0.058,0.731,0.099,1.002l2.937,5.073
						c0.27,0.431,0.415,0.646,0.684,0.719c0.27,0.071,0.502-0.043,0.95-0.283l5.071-2.937c0.27-0.158,0.443-0.298,0.583-0.823
						c1.022-3.836,3.567-7.056,6.939-8.979v-0.003v-0.002v0.002c2.141-1.225,4.619-1.921,7.257-1.921
						c8.1,0,14.689,6.59,14.689,14.691L1403.528,222.929z"/>
				</g>
			</g>
		</g>
		<g id="Group_2_">
			<g id="Vector_12_">
				<g transform="translate(64.652 -519.875)">
					<path id="path20_fill" fill="none" stroke="#433F92" stroke-miterlimit="10" d="M1354.304,139.642l-4.145,4.144
						c-0.35,0.373-0.519,0.568-0.519,0.845c0,0.279,0.169,0.477,0.519,0.846l4.145,4.147l0.359,0.349h-0.44
						c-8.099,0-14.692,6.592-14.692,14.693c0,8.098,6.594,14.69,14.692,14.69h4.397c0.541,0,0.721,0.132,0.94,0.353l4.146,4.143
						c0.349,0.372,0.519,0.567,0.519,0.846c0,0.278-0.17,0.473-0.519,0.845l-4.146,4.145c-0.22,0.22-0.399,0.354-0.94,0.354h-4.397
						c-13.993,0-25.374-11.383-25.374-25.375c0-13.995,11.38-25.376,25.374-25.376h0.44L1354.304,139.642z"/>
				</g>
			</g>
			<g id="Vector_13_">
				<g transform="translate(64.65 -493.234)">
					<path id="path21_fill" fill="none" stroke="#433F92" stroke-miterlimit="10" d="M1368.348,189.688l4.147-4.144
						c0.347-0.373,0.518-0.567,0.518-0.845c0-0.279-0.171-0.474-0.518-0.846l-4.147-4.144l-0.358-0.352h0.438
						c8.104,0,14.692-6.592,14.692-14.69c0-8.101-6.589-14.693-14.692-14.693h-4.396c-0.543,0-0.725-0.131-0.943-0.349l-4.146-4.147
						c-0.347-0.37-0.517-0.567-0.517-0.846c0-0.277,0.171-0.473,0.517-0.844l4.146-4.145c0.219-0.219,0.4-0.351,0.943-0.351h4.396
						c13.994,0,25.378,11.381,25.378,25.376c0,13.992-11.384,25.376-25.378,25.376h-0.438L1368.348,189.688z"/>
				</g>
			</g>
		</g>
		<g id="Group_3_">
			<g id="Vector_14_">
				<g transform="translate(121.918 -543.178)">
					<path id="path22_fill" fill="none" stroke="#433F92" stroke-miterlimit="10" d="M1308.581,115.775c-0.002,0-0.002,0-0.002,0
						l-0.28,0.018c-0.33,0.041-0.485,0.16-0.659,0.335l-4.145,4.143c-0.35,0.372-0.52,0.57-0.52,0.846
						c0,0.279,0.17,0.477,0.52,0.846l4.145,4.146c0.174,0.174,0.329,0.295,0.659,0.334l0.282,0.019h53.643
						c0.543,0,0.725-0.134,0.945-0.352l4.145-4.146c0.35-0.37,0.52-0.567,0.52-0.846c0-0.276-0.17-0.473-0.52-0.846l-4.145-4.143
						c-0.219-0.218-0.402-0.353-0.945-0.353h-39.115h-14.527V115.775z"/>
				</g>
			</g>
			<g id="Vector_15_">
				<g transform="translate(136.23 -543.178)">
					<path id="path23_fill" fill="none" stroke="#433F92" stroke-miterlimit="10" d="M1313.306,109.944l-4.142-4.143
						c-0.372-0.348-0.568-0.52-0.848-0.52c-0.278,0-0.476,0.172-0.845,0.52l-4.144,4.143l-0.353,0.352
						c0-13.993,11.385-25.376,25.375-25.376c4.551,0,8.821,1.203,12.518,3.307v-0.002l0.002,0.005
						c5.836,3.326,10.233,8.895,12.002,15.528l0,0c0.139,0.522,0.057,0.731-0.1,0.999l-2.938,5.073
						c-0.268,0.433-0.414,0.649-0.684,0.722c-0.269,0.069-0.502-0.045-0.949-0.284l-5.072-2.939
						c-0.27-0.154-0.443-0.296-0.583-0.819c-1.022-3.835-3.564-7.055-6.94-8.981v-0.003c-2.143-1.222-4.62-1.919-7.259-1.919
						c-8.097,0-14.688,6.59-14.688,14.69L1313.306,109.944z"/>
				</g>
			</g>
		</g>
	</g>
	<g>
		<path fill="none" stroke="#433F92" stroke-miterlimit="10" d="M1518.376,259.898c1.271-1.489,3.057-2.234,5.359-2.234
			c2.344,0,4.166,0.745,5.469,2.234c1.303,1.49,1.953,3.589,1.953,6.297v6.953h7.688v0.641h-22.375v-7.594
			C1516.47,263.487,1517.104,261.388,1518.376,259.898z M1530.532,273.148v-6.953c0-2.521-0.594-4.466-1.781-5.836
			c-1.188-1.369-2.859-2.055-5.016-2.055c-2.115,0-3.748,0.688-4.898,2.063s-1.727,3.318-1.727,5.828v6.953H1530.532z"/>
		<path fill="none" stroke="#433F92" stroke-miterlimit="10" d="M1523.353,242.906c0.703-1.224,1.686-2.185,2.945-2.883
			c1.26-0.697,2.682-1.047,4.266-1.047s3.002,0.35,4.258,1.047c1.256,0.698,2.24,1.659,2.953,2.883
			c0.713,1.225,1.07,2.592,1.07,4.102c0,1.511-0.357,2.881-1.07,4.109c-0.713,1.229-1.701,2.193-2.961,2.891
			c-1.26,0.698-2.678,1.047-4.25,1.047c-1.584,0-3.006-0.349-4.266-1.047c-1.26-0.697-2.242-1.658-2.945-2.883
			c-0.703-1.224-1.055-2.596-1.055-4.117C1522.298,245.498,1522.649,244.13,1523.353,242.906z M1523.915,250.828
			c0.65,1.131,1.553,2.011,2.703,2.641c1.15,0.631,2.467,0.945,3.945,0.945c1.469,0,2.783-0.314,3.945-0.945
			c1.162-0.63,2.068-1.51,2.719-2.641c0.65-1.13,0.977-2.403,0.977-3.82c0-1.406-0.326-2.674-0.977-3.805
			c-0.65-1.13-1.557-2.01-2.719-2.641c-1.162-0.63-2.477-0.945-3.945-0.945s-2.781,0.315-3.938,0.945
			c-1.156,0.631-2.061,1.511-2.711,2.641c-0.65,1.131-0.977,2.398-0.977,3.805C1522.938,248.424,1523.265,249.698,1523.915,250.828z
			"/>
		<path fill="none" stroke="#433F92" stroke-miterlimit="10" d="M1523.368,221.484c0.713-1.213,1.701-2.169,2.961-2.867
			c1.26-0.697,2.682-1.047,4.266-1.047s2.998,0.35,4.242,1.047c1.244,0.698,2.225,1.654,2.938,2.867
			c0.713,1.214,1.07,2.586,1.07,4.117c0,1.709-0.438,3.219-1.313,4.531s-2.057,2.271-3.547,2.875h11.063v0.625h-22.75v-0.625h4.859
			c-1.49-0.594-2.672-1.549-3.547-2.867c-0.875-1.317-1.313-2.83-1.313-4.539C1522.298,224.07,1522.655,222.698,1523.368,221.484z
			 M1537.228,221.812c-0.65-1.119-1.557-2-2.719-2.641s-2.467-0.961-3.914-0.961s-2.756,0.32-3.922,0.961s-2.08,1.521-2.742,2.641
			c-0.662,1.12-0.992,2.383-0.992,3.789s0.33,2.672,0.992,3.797s1.572,2.008,2.734,2.648s2.471,0.961,3.93,0.961
			c1.447,0,2.752-0.32,3.914-0.961s2.068-1.521,2.719-2.641c0.65-1.119,0.977-2.388,0.977-3.805
			C1538.204,224.195,1537.878,222.932,1537.228,221.812z"/>
		<path fill="none" stroke="#433F92" stroke-miterlimit="10" d="M1532.032,202.132l6.813,3.094v0.781l-22.375-10.25v-0.703
			l22.375-10.359v0.734l-6.813,3.125V202.132z M1517.22,195.414l14.172,6.422v-12.984L1517.22,195.414z"/>
		<path fill="none" stroke="#433F92" stroke-miterlimit="10" d="M1538.845,180.695h-23.75v-0.625h23.75V180.695z"/>
		<path fill="none" stroke="#433F92" stroke-miterlimit="10" d="M1523.368,160.546c0.713-1.213,1.701-2.169,2.961-2.867
			c1.26-0.697,2.682-1.047,4.266-1.047s2.998,0.35,4.242,1.047c1.244,0.698,2.225,1.654,2.938,2.867
			c0.713,1.214,1.07,2.586,1.07,4.117c0,1.709-0.438,3.219-1.313,4.531s-2.057,2.271-3.547,2.875h11.063v0.625h-22.75v-0.625h4.859
			c-1.49-0.594-2.672-1.549-3.547-2.867c-0.875-1.317-1.313-2.83-1.313-4.539C1522.298,163.132,1522.655,161.76,1523.368,160.546z
			 M1537.228,160.875c-0.65-1.119-1.557-2-2.719-2.641s-2.467-0.961-3.914-0.961s-2.756,0.32-3.922,0.961s-2.08,1.521-2.742,2.641
			c-0.662,1.12-0.992,2.383-0.992,3.789s0.33,2.672,0.992,3.797s1.572,2.008,2.734,2.648s2.471,0.961,3.93,0.961
			c1.447,0,2.752-0.32,3.914-0.961s2.068-1.521,2.719-2.641c0.65-1.119,0.977-2.388,0.977-3.805
			C1538.204,163.257,1537.878,161.995,1537.228,160.875z"/>
		<path fill="none" stroke="#433F92" stroke-miterlimit="10" d="M1524.024,138.859c1.15-1.141,2.752-1.711,4.805-1.711h10.016v0.641
			h-10.016c-1.854,0-3.299,0.519-4.336,1.555c-1.037,1.037-1.555,2.472-1.555,4.305c0.041,2.198,0.75,3.917,2.125,5.156
			c1.375,1.24,3.271,1.859,5.688,1.859h8.094v0.625h-23.75v-0.625h11.969c-1.49-0.531-2.65-1.396-3.484-2.594
			c-0.834-1.197-1.26-2.672-1.281-4.422C1522.298,141.596,1522.874,140,1524.024,138.859z"/>
		<path fill="none" stroke="#433F92" stroke-miterlimit="10" d="M1535.095,119.835c1.26,0.729,2.201,1.686,2.82,2.867
			c0.619,1.183,0.93,2.545,0.93,4.086c0,1.584-0.447,2.875-1.344,3.875s-2.037,1.5-3.422,1.5c-1.344,0-2.391-0.549-3.141-1.648
			c-0.75-1.099-1.125-2.596-1.125-4.492v-6.141h-2.016c-1.563,0.021-2.764,0.475-3.602,1.359c-0.838,0.886-1.258,2.178-1.258,3.875
			c0,1.042,0.197,2.029,0.594,2.961c0.396,0.933,0.969,1.878,1.719,2.836l-0.516,0.391c-1.625-2.052-2.438-4.114-2.438-6.188
			c0-1.875,0.492-3.317,1.477-4.328c0.984-1.01,2.326-1.525,4.023-1.547l11.047-0.078v0.641L1535.095,119.835z M1537.118,122.531
			c-0.725-1.15-1.877-2.049-3.461-2.695l-3.203,0.047v6.141c0,1.75,0.314,3.104,0.945,4.063c0.631,0.959,1.523,1.438,2.68,1.438
			c1.24,0,2.236-0.432,2.992-1.297c0.756-0.864,1.133-2.021,1.133-3.469C1538.204,125.091,1537.843,123.682,1537.118,122.531z"/>
		<path fill="none" stroke="#433F92" stroke-miterlimit="10" d="M1523.368,100.375c0.713-1.213,1.701-2.169,2.961-2.867
			c1.26-0.697,2.682-1.047,4.266-1.047s2.998,0.35,4.242,1.047c1.244,0.698,2.225,1.654,2.938,2.867
			c0.713,1.214,1.07,2.586,1.07,4.117c0,1.709-0.438,3.219-1.313,4.531s-2.057,2.271-3.547,2.875h4.859v0.625h-23.75v-0.625h12.063
			c-1.49-0.594-2.672-1.549-3.547-2.867c-0.875-1.317-1.313-2.83-1.313-4.539C1522.298,102.96,1522.655,101.588,1523.368,100.375z
			 M1537.228,100.703c-0.65-1.119-1.557-2-2.719-2.641s-2.467-0.961-3.914-0.961s-2.756,0.32-3.922,0.961s-2.08,1.521-2.742,2.641
			c-0.662,1.12-0.992,2.383-0.992,3.789s0.33,2.672,0.992,3.797s1.572,2.008,2.734,2.648s2.471,0.961,3.93,0.961
			c1.447,0,2.752-0.32,3.914-0.961s2.068-1.521,2.719-2.641c0.65-1.119,0.977-2.388,0.977-3.805
			C1538.204,103.085,1537.878,101.823,1537.228,100.703z"/>
		<path fill="none" stroke="#433F92" stroke-miterlimit="10" d="M1537.579,81.859c-0.416-1.016-1.01-1.861-1.781-2.539l0.453-0.453
			c0.834,0.771,1.475,1.701,1.922,2.789c0.447,1.089,0.672,2.264,0.672,3.523c0,1.511-0.357,2.867-1.07,4.07
			s-1.701,2.154-2.961,2.852c-1.26,0.698-2.678,1.047-4.25,1.047c-1.584,0-3.006-0.349-4.266-1.047
			c-1.26-0.697-2.242-1.648-2.945-2.852s-1.055-2.56-1.055-4.07c0-1.51,0.352-2.849,1.055-4.016c0.703-1.166,1.686-2.07,2.945-2.711
			s2.682-0.961,4.266-0.961v15.016c1.469,0,2.783-0.314,3.945-0.945c1.162-0.63,2.068-1.5,2.719-2.609s0.977-2.367,0.977-3.773
			C1538.204,83.982,1537.995,82.875,1537.579,81.859z M1523.821,88.773c0.588,1.073,1.412,1.936,2.469,2.586
			c1.057,0.651,2.268,1.019,3.633,1.102V78.132c-2.094,0.146-3.781,0.85-5.063,2.109c-1.281,1.261-1.922,2.906-1.922,4.938
			C1522.938,86.502,1523.233,87.701,1523.821,88.773z"/>
		<path fill="none" stroke="#433F92" stroke-miterlimit="10" d="M1538.845,68.476c0,1.136-0.383,1.995-1.148,2.578
			c-0.766,0.584-1.898,0.875-3.398,0.875h-11.031v2.438h-0.641v-2.438h-3.938v-0.641h3.938V65.46h0.641v5.828h11.031
			c1.281,0,2.252-0.239,2.914-0.719c0.662-0.479,0.992-1.177,0.992-2.094c0-1.063-0.354-2.047-1.063-2.953l0.516-0.375
			C1538.448,66.21,1538.845,67.32,1538.845,68.476z"/>
		<path fill="none" stroke="#433F92" stroke-miterlimit="10" d="M1574.845,272.55l-12.41,5.098v-0.563l11.859-4.793l-11.859-4.781
			v-0.574l12.41,5.086V272.55z"/>
		<path fill="none" stroke="#433F92" stroke-miterlimit="10" d="M1573.948,264.605c0.121-0.117,0.268-0.176,0.439-0.176
			c0.156,0,0.299,0.059,0.428,0.176s0.193,0.266,0.193,0.445c0,0.156-0.063,0.299-0.188,0.428s-0.27,0.193-0.434,0.193
			c-0.18,0-0.328-0.064-0.445-0.193s-0.176-0.271-0.176-0.428C1573.767,264.871,1573.827,264.722,1573.948,264.605z"/>
		<path fill="none" stroke="#433F92" stroke-miterlimit="10" d="M1574.845,258.886h-16.301v3.598h-0.48v-4.078h16.781V258.886z"/>
		<path fill="none" stroke="#433F92" stroke-miterlimit="10" d="M1573.948,252.253c0.121-0.117,0.268-0.176,0.439-0.176
			c0.156,0,0.299,0.059,0.428,0.176s0.193,0.266,0.193,0.445c0,0.156-0.063,0.299-0.188,0.428s-0.27,0.193-0.434,0.193
			c-0.18,0-0.328-0.064-0.445-0.193s-0.176-0.271-0.176-0.428C1573.767,252.519,1573.827,252.371,1573.948,252.253z"/>
		<path fill="none" stroke="#433F92" stroke-miterlimit="10" d="M1560.237,237.675c1.449-1.148,3.518-1.723,6.205-1.723
			c2.703,0,4.779,0.57,6.229,1.711s2.174,2.785,2.174,4.934c0,2.125-0.725,3.76-2.174,4.904s-3.525,1.717-6.229,1.717
			c-2.688,0-4.756-0.572-6.205-1.717s-2.174-2.779-2.174-4.904C1558.063,240.464,1558.788,238.824,1560.237,237.675z
			 M1560.589,247.156c1.363,1.055,3.314,1.582,5.854,1.582c2.547,0,4.504-0.527,5.871-1.582s2.051-2.574,2.051-4.559
			s-0.684-3.508-2.051-4.57s-3.324-1.594-5.871-1.594s-4.5,0.531-5.859,1.594s-2.039,2.586-2.039,4.57
			S1559.226,246.101,1560.589,247.156z"/>
		<path fill="none" stroke="#433F92" stroke-miterlimit="10" d="M1567.884,225.64h-0.48v-5.215h0.48V225.64z"/>
		<path fill="none" stroke="#433F92" stroke-miterlimit="10" d="M1560.237,198.57c1.449-1.148,3.518-1.723,6.205-1.723
			c2.703,0,4.779,0.57,6.229,1.711s2.174,2.785,2.174,4.934c0,2.125-0.725,3.76-2.174,4.904s-3.525,1.717-6.229,1.717
			c-2.688,0-4.756-0.572-6.205-1.717s-2.174-2.779-2.174-4.904C1558.063,201.359,1558.788,199.718,1560.237,198.57z
			 M1560.589,208.05c1.363,1.055,3.314,1.582,5.854,1.582c2.547,0,4.504-0.527,5.871-1.582s2.051-2.574,2.051-4.559
			s-0.684-3.508-2.051-4.57s-3.324-1.594-5.871-1.594s-4.5,0.531-5.859,1.594s-2.039,2.586-2.039,4.57
			S1559.226,206.996,1560.589,208.05z"/>
		<path fill="none" stroke="#433F92" stroke-miterlimit="10" d="M1558.345,185.421c0.188-0.766,0.449-1.492,0.785-2.18l0.422,0.234
			c-0.32,0.609-0.568,1.273-0.744,1.992s-0.264,1.406-0.264,2.063c0,1.875,0.748,3.332,2.244,4.371s3.572,1.559,6.229,1.559
			c0.578,0,1.195-0.023,1.852-0.07c-1.406-0.273-2.514-0.906-3.322-1.898s-1.213-2.246-1.213-3.762c0-1.617,0.459-2.891,1.377-3.82
			s2.186-1.395,3.803-1.395c1.648,0,2.949,0.48,3.902,1.441s1.43,2.25,1.43,3.867c0,1.938-0.684,3.445-2.051,4.523
			s-3.332,1.617-5.895,1.617c-1.758,0-3.305-0.256-4.641-0.768s-2.369-1.252-3.1-2.221s-1.096-2.102-1.096-3.398
			C1558.063,186.906,1558.157,186.187,1558.345,185.421z M1565.487,190.513c0.449,0.801,1.045,1.412,1.787,1.834
			s1.539,0.633,2.391,0.633c0.688,0,1.395-0.184,2.121-0.551s1.338-0.932,1.834-1.693s0.744-1.693,0.744-2.795
			c0-0.961-0.199-1.816-0.598-2.566s-0.967-1.334-1.705-1.752s-1.604-0.627-2.596-0.627c-1.422,0-2.553,0.428-3.393,1.283
			s-1.26,2.006-1.26,3.451C1564.813,188.785,1565.038,189.712,1565.487,190.513z"/>
		<path fill="none" stroke="#433F92" stroke-miterlimit="10" d="M1577.962,174.031l-22.945-7.348v-0.504l22.945,7.348V174.031z"/>
		<path fill="none" stroke="#433F92" stroke-miterlimit="10" d="M1574.845,155.75h-16.301v3.598h-0.48v-4.078h16.781V155.75z"/>
		<path fill="none" stroke="#433F92" stroke-miterlimit="10" d="M1574.845,147.23v0.527l-16.301-7.512v9.844h2.695v0.48h-3.176
			v-10.781h0.609L1574.845,147.23z"/>
	</g>
	<line fill="none" stroke="#433F92" stroke-miterlimit="10" x1="346.563" y1="37.764" x2="346.563" y2="292.882"/>
	<line fill="none" stroke="#433F92" stroke-miterlimit="10" x1="346.563" y1="307.055" x2="346.563" y2="562.173"/>
	<line fill="none" stroke="#433F92" stroke-miterlimit="10" x1="346.563" y1="576.347" x2="346.563" y2="831.464"/>
	<line fill="none" stroke="#433F92" stroke-miterlimit="10" x1="346.563" y1="845.638" x2="346.563" y2="1100.755"/>
	<line fill="none" stroke="#433F92" stroke-miterlimit="10" x1="729.239" y1="37.764" x2="729.239" y2="292.882"/>
	<line fill="none" stroke="#433F92" stroke-miterlimit="10" x1="729.239" y1="307.055" x2="729.239" y2="562.173"/>
	<line fill="none" stroke="#433F92" stroke-miterlimit="10" x1="729.239" y1="576.347" x2="729.239" y2="831.464"/>
	<line fill="none" stroke="#433F92" stroke-miterlimit="10" x1="729.239" y1="845.638" x2="729.239" y2="1100.755"/>
	<line fill="none" stroke="#433F92" stroke-miterlimit="10" x1="1111.916" y1="37.764" x2="1111.916" y2="292.882"/>
	<line fill="none" stroke="#433F92" stroke-miterlimit="10" x1="1111.916" y1="307.055" x2="1111.916" y2="562.173"/>
	<line fill="none" stroke="#433F92" stroke-miterlimit="10" x1="1111.916" y1="576.347" x2="1111.916" y2="831.464"/>
	<line fill="none" stroke="#433F92" stroke-miterlimit="10" x1="1111.916" y1="845.638" x2="1111.916" y2="1100.755"/>
	<line fill="none" stroke="#433F92" stroke-miterlimit="10" x1="1494.594" y1="37.764" x2="1494.594" y2="292.882"/>
	<line fill="none" stroke="#433F92" stroke-miterlimit="10" x1="1494.594" y1="307.055" x2="1494.594" y2="562.173"/>
	<line fill="none" stroke="#433F92" stroke-miterlimit="10" x1="1494.594" y1="576.347" x2="1494.594" y2="831.464"/>
	<line fill="none" stroke="#433F92" stroke-miterlimit="10" x1="1494.594" y1="845.638" x2="1494.594" y2="1100.755"/>
</g>
</svg>
